HIERARCHY
ROOT root
{
	OFFSET 0.000000 0.000000 0.000000
	CHANNELS 6 Xposition Yposition Zposition Zrotation Yrotation Xrotation
	JOINT lhip
	{
		OFFSET 0.058581 -0.082280 -0.017664
		CHANNELS 3 Zrotation Yrotation Xrotation
		JOINT lknee
		{
			OFFSET 0.043451 -0.386469 0.008037
			CHANNELS 3 Zrotation Yrotation Xrotation
			JOINT lankle
			{
				OFFSET -0.014790 -0.426874 -0.037428
				CHANNELS 3 Zrotation Yrotation Xrotation
				JOINT ltoe
				{
					OFFSET 0.041054 -0.060286 0.122042
					CHANNELS 3 Zrotation Yrotation Xrotation
					End Site
					{
						OFFSET 0.000000 0.000000 0.000000
					}
				}
			}
		}
	}
	JOINT rhip
	{
		OFFSET -0.060310 -0.090513 -0.013543
		CHANNELS 3 Zrotation Yrotation Xrotation
		JOINT rknee
		{
			OFFSET -0.043257 -0.383688 -0.004843
			CHANNELS 3 Zrotation Yrotation Xrotation
			JOINT rankle
			{
				OFFSET 0.019056 -0.420046 -0.034562
				CHANNELS 3 Zrotation Yrotation Xrotation
				JOINT rtoe
				{
					OFFSET -0.034840 -0.062106 0.130323
					CHANNELS 3 Zrotation Yrotation Xrotation
					End Site
					{
						OFFSET 0.000000 0.000000 0.000000
					}
				}
			}
		}
	}
	JOINT lowerback
	{
		OFFSET 0.004439 0.124404 -0.038385
		CHANNELS 3 Zrotation Yrotation Xrotation
		JOINT upperback
		{
			OFFSET 0.004488 0.137956 0.026820
			CHANNELS 3 Zrotation Yrotation Xrotation
			JOINT chest
			{
				OFFSET -0.002265 0.056032 0.002855
				CHANNELS 3 Zrotation Yrotation Xrotation
				JOINT lowerneck
				{
					OFFSET -0.013390 0.211636 -0.033468
					CHANNELS 3 Zrotation Yrotation Xrotation
					JOINT upperneck
					{
						OFFSET 0.010113 0.088937 0.050410
						CHANNELS 3 Zrotation Yrotation Xrotation
						End Site
						{
							OFFSET 0.000000 0.000000 0.000000
						}
					}
				}
				JOINT lclavicle
				{
					OFFSET 0.071702 0.114000 -0.018898
					CHANNELS 3 Zrotation Yrotation Xrotation
					JOINT lshoulder
					{
						OFFSET 0.122921 0.045205 -0.019046
						CHANNELS 3 Zrotation Yrotation Xrotation
						JOINT lelbow
						{
							OFFSET 0.255332 -0.015649 -0.022946
							CHANNELS 3 Zrotation Yrotation Xrotation
							JOINT lwrist
							{
								OFFSET 0.265709 0.012698 -0.007375
								CHANNELS 3 Zrotation Yrotation Xrotation
								End Site
								{
									OFFSET 0.000000 0.000000 0.000000
								}
							}
						}
					}
				}
				JOINT rclavicle
				{
					OFFSET -0.082954 0.112472 -0.023707
					CHANNELS 3 Zrotation Yrotation Xrotation
					JOINT rshoulder
					{
						OFFSET -0.113228 0.046853 -0.008472
						CHANNELS 3 Zrotation Yrotation Xrotation
						JOINT relbow
						{
							OFFSET -0.260127 -0.014369 -0.031269
							CHANNELS 3 Zrotation Yrotation Xrotation
							JOINT rwrist
							{
								OFFSET -0.269108 0.006794 -0.006027
								CHANNELS 3 Zrotation Yrotation Xrotation
								End Site
								{
									OFFSET 0.000000 0.000000 0.000000
								}
							}
						}
					}
				}
			}
		}
	}
}
MOTION
Frames: 10
Frame Time: 0.033333
-0.061026 0.818835 0.980732 -5.929645 0.239385 92.410324 8.786568 8.011664 3.030455 -2.184069 5.074730 -4.262466 0.190101 11.471587 -9.104953 0.000000 -0.000000 0.000000 -9.675411 -7.037994 -4.613343 2.484662 -8.563397 4.546750 4.763872 -5.318805 -3.682401 0.000000 -0.000000 0.000000 1.539124 -0.612632 -7.582350 1.546387 -2.664626 10.078102 -2.248920 -0.530473 -4.645064 -3.079117 -11.024728 -0.383309 -0.982940 -23.036257 11.262560 -31.142634 -1.458506 4.019470 -55.392537 -8.763245 19.245173 4.313007 -19.782777 6.033500 -7.194527 -12.680709 4.406775 32.742084 5.496649 5.720001 52.802839 7.481709 9.502491 -14.569004 15.977605 -18.369126 6.879220 10.243141 -16.233872 
-0.061086 0.818553 0.980684 -5.997226 0.290762 92.309456 8.857855 8.023640 3.179164 -2.183599 5.059791 -4.286180 0.217071 11.533711 -9.097064 0.000000 -0.000000 0.000000 -9.625963 -6.959262 -4.416802 2.513566 -8.298632 4.388985 5.113706 -5.650543 -3.744336 0.000000 -0.000000 0.000000 1.673591 -0.700788 -7.333923 1.352683 -2.554690 9.614361 -2.143447 -0.510292 -4.263732 -3.005198 -11.057159 -0.842023 -1.289861 -22.915965 11.886242 -31.021038 -1.443095 3.907198 -55.519600 -8.745176 19.209437 4.418146 -19.950344 6.350617 -7.042992 -12.538869 4.189205 32.663500 5.453272 5.739935 52.950178 7.518601 9.590223 -14.722890 16.101965 -18.249141 6.909174 10.217667 -16.318081 
-0.060976 0.818405 0.980605 -6.037211 0.321212 92.351450 8.879420 8.020998 3.136383 -2.185084 5.095590 -4.265693 0.279701 11.562342 -9.039255 0.000000 -0.000000 0.000000 -9.589724 -6.983042 -4.529581 2.495994 -8.226343 4.483360 5.200957 -5.714149 -3.763038 0.000000 -0.000000 0.000000 1.701149 -0.704142 -7.436916 1.343174 -2.551983 9.698619 -2.116098 -0.516355 -4.246438 -2.950155 -10.969878 -0.919370 -1.370138 -22.914001 11.941574 -30.987006 -1.470566 3.897041 -55.622734 -8.763531 19.186364 4.538317 -20.007993 6.258748 -7.170072 -12.489574 4.095274 32.579414 5.461003 5.755803 53.023440 7.550957 9.600826 -14.799400 16.092748 -18.265770 6.968902 10.168021 -16.339409 
-0.060871 0.818295 0.980584 -6.070259 0.352307 92.367372 8.906617 7.986269 3.100439 -2.194351 5.147680 -4.209502 0.291499 11.556239 -9.062391 0.000000 -0.000000 0.000000 -9.584813 -6.986780 -4.543552 2.549490 -8.200293 4.454774 5.204878 -5.678398 -3.707237 0.000000 -0.000000 0.000000 1.696279 -0.719563 -7.462116 1.389743 -2.618605 9.825088 -2.125988 -0.453720 -4.346053 -2.928552 -10.888370 -1.001800 -1.382221 -22.930594 12.046254 -31.005459 -1.402179 3.792786 -55.677653 -8.789590 19.100170 4.519038 -19.906783 6.164350 -7.360427 -12.487713 4.305404 32.649630 5.411308 5.678432 52.886534 7.505065 9.497331 -15.191014 16.354168 -18.170136 7.030646 10.192626 -15.498063 
-0.060887 0.818188 0.980581 -6.114957 0.364663 92.344581 8.915793 7.982905 3.167181 -2.187068 5.128504 -4.257419 0.283949 11.589946 -9.117403 0.000000 -0.000000 0.000000 -9.562337 -6.993554 -4.542166 2.533283 -8.164364 4.481730 5.227653 -5.663354 -3.709998 0.000000 -0.000000 0.000000 1.709991 -0.721691 -7.418766 1.381524 -2.602917 9.786427 -2.125283 -0.430427 -4.341690 -2.957199 -10.894678 -0.931446 -1.352847 -22.860999 12.069726 -30.970567 -1.379776 3.783868 -55.727554 -8.788360 19.194182 4.457286 -19.804111 6.239486 -7.150078 -12.547450 4.214886 32.603184 5.388413 5.622555 52.936149 7.478683 9.525036 -14.933743 16.032152 -18.215041 6.990158 10.201217 -15.887656 
-0.060801 0.817978 0.980551 -6.065284 0.369880 92.334719 8.917937 7.969662 3.151900 -2.163755 5.099456 -4.212898 0.222975 11.593776 -9.162560 0.000000 -0.000000 0.000000 -9.556128 -6.986318 -4.502554 2.518100 -8.194608 4.449803 5.218351 -5.745937 -3.710435 0.000000 -0.000000 0.000000 1.723166 -0.777041 -7.449986 1.362359 -2.644148 9.826631 -2.130631 -0.468472 -4.291064 -2.952959 -10.892696 -1.036585 -1.237117 -22.734555 12.038558 -31.011687 -1.356403 3.798091 -55.746926 -8.730084 19.188445 4.496435 -19.799145 6.147624 -6.848446 -12.548855 4.154660 32.626992 5.440040 5.558822 52.862674 7.454770 9.538783 -14.792930 15.876351 -18.197225 7.083858 10.224160 -16.182911 
-0.060762 0.817780 0.980505 -6.052989 0.389287 92.351642 8.929707 7.982090 3.153580 -2.159449 5.089893 -4.244863 0.219362 11.554697 -9.130737 0.000000 -0.000000 0.000000 -9.545408 -7.004883 -4.520829 2.536963 -8.200342 4.460927 5.233038 -5.735909 -3.711760 0.000000 -0.000000 0.000000 1.743175 -0.794265 -7.473668 1.369375 -2.665647 9.862238 -2.141478 -0.504723 -4.289703 -2.944348 -10.853869 -1.039059 -1.175083 -22.638198 11.906984 -31.032587 -1.308134 3.726377 -55.767154 -8.666609 19.170896 4.406662 -19.671007 6.088213 -6.762704 -12.649470 4.112987 32.609244 5.464667 5.574422 52.819073 7.506994 9.545345 -14.697263 15.735746 -18.177423 6.959175 10.276544 -16.116425 
-0.060656 0.817754 0.980475 -6.040795 0.404983 92.339282 8.951739 8.026020 3.121692 -2.168522 5.057777 -4.151879 0.268141 11.560319 -9.148632 0.000000 -0.000000 0.000000 -9.538432 -6.982287 -4.525049 2.521202 -8.221721 4.513093 5.181069 -5.733083 -3.759464 0.000000 -0.000000 0.000000 1.771069 -0.808342 -7.416020 1.372823 -2.655704 9.822433 -2.137403 -0.540941 -4.310721 -2.942568 -10.814137 -1.060716 -1.195690 -22.477771 11.920578 -31.066829 -1.301363 3.749963 -55.827047 -8.566663 19.167603 4.397034 -19.647285 5.947565 -6.520119 -12.621529 4.058328 32.572628 5.432048 5.580629 52.814852 7.435638 9.539432 -14.683141 15.795999 -18.143923 6.911581 10.171880 -16.129784 
-0.060576 0.817666 0.980449 -6.022811 0.392751 92.335734 8.936701 8.000942 3.130043 -2.174376 5.030075 -4.178809 0.280232 11.590731 -9.101778 0.000000 -0.000000 0.000000 -9.553935 -6.915373 -4.524562 2.510616 -8.280120 4.529866 5.195792 -5.743712 -3.740931 0.000000 -0.000000 0.000000 1.787631 -0.855803 -7.305614 1.337474 -2.637378 9.727923 -2.137356 -0.527986 -4.325921 -2.964355 -10.846757 -1.193474 -1.243495 -22.386055 12.130287 -31.124596 -1.210400 3.845075 -55.818244 -8.487019 19.107017 4.367990 -19.730838 5.981597 -6.441878 -12.728125 3.848232 32.570962 5.395061 5.562010 52.826399 7.374678 9.514339 -14.682203 15.798543 -18.066541 6.879723 10.197617 -16.215421 
-0.060494 0.817602 0.980347 -6.027155 0.388451 92.350111 8.935172 8.011678 3.103591 -2.183127 5.027085 -4.170020 0.237999 11.587619 -9.142335 0.000000 -0.000000 0.000000 -9.558955 -6.876129 -4.573240 2.500001 -8.331374 4.554073 5.196162 -5.781776 -3.743519 0.000000 -0.000000 0.000000 1.730224 -0.839218 -7.445368 1.370212 -2.594644 9.891558 -2.125981 -0.497567 -4.307886 -2.912196 -10.783141 -1.175049 -1.367661 -22.369051 12.285189 -31.106612 -1.251926 3.822356 -55.902056 -8.470127 19.181935 4.361209 -19.688384 5.951143 -6.551406 -12.648977 3.897967 32.586540 5.383555 5.584888 52.769121 7.419637 9.459698 -14.682690 15.787121 -18.131911 6.925010 10.161533 -16.124608 
